<svg width="40" height="37" viewBox="0 0 40 37" fill="none" xmlns="http://www.w3.org/2000/svg">
<path d="M18 5.5C18 2.73858 20.2386 0.5 23 0.5H35C37.7614 0.5 40 2.73858 40 5.5V11.5C40 14.2614 37.7614 16.5 35 16.5H25.2426C24.9774 16.5 24.7231 16.6054 24.5355 16.7929L23.1213 18.2071C21.2314 20.097 18 18.7585 18 16.0858V5.5Z" fill="#F2F5F9"/>
<path d="M6 16.5C6 14.2909 7.79086 12.5 10 12.5H16V8.5H10C5.58172 8.5 2 12.0817 2 16.5V20.5H0V24.5H2V28.5C2 32.9183 5.58172 36.5 10 36.5H30C34.4183 36.5 38 32.9183 38 28.5V24.5H40V20.5H38V18.5H34V28.5C34 30.7091 32.2091 32.5 30 32.5H10C7.79086 32.5 6 30.7091 6 28.5V16.5Z" fill="#F2F5F9"/>
<path d="M24 21.5C24 20.9477 24.4477 20.5 25 20.5H27C27.5523 20.5 28 20.9477 28 21.5V23.5C28 24.0523 27.5523 24.5 27 24.5H25C24.4477 24.5 24 24.0523 24 23.5V21.5Z" fill="#F2F5F9"/>
<path d="M13 20.5C12.4477 20.5 12 20.9477 12 21.5V23.5C12 24.0523 12.4477 24.5 13 24.5H15C15.5523 24.5 16 24.0523 16 23.5V21.5C16 20.9477 15.5523 20.5 15 20.5H13Z" fill="#F2F5F9"/>
</svg>
