<svg width="17" height="23" viewBox="0 0 17 23" fill="none" xmlns="http://www.w3.org/2000/svg">
<path d="M11 12.4199H17V4.66256C17 3.86691 16.6839 3.10385 16.1213 2.54124L14.8787 1.2986C14.3161 0.735992 13.553 0.419922 12.7574 0.419922H12C10.3431 0.419922 9 1.76307 9 3.41992V6.51159C9 7.10387 9.17531 7.68289 9.50385 8.1757L10.4962 9.66415C10.8247 10.157 11 10.736 11 11.3282V12.4199Z" fill="#0F67FE"/>
<path d="M0 17.4199H6V16.8741C6 16.5779 6.08766 16.2884 6.25192 16.042L7.49615 14.1757C7.82469 13.6829 8 13.1039 8 12.5116V9.41992C8 7.76307 6.65685 6.41992 5 6.41992H4.24264C3.44699 6.41992 2.68393 6.73599 2.12132 7.2986L0.87868 8.54124C0.316071 9.10385 0 9.86691 0 10.6626V17.4199Z" fill="#0F67FE"/>
<path d="M6 18.4199H0V20.9199C0 21.7483 0.671573 22.4199 1.5 22.4199H4.5C5.32843 22.4199 6 21.7483 6 20.9199V18.4199Z" fill="#0F67FE"/>
<path d="M11 13.4199H17V15.9199C17 16.7483 16.3284 17.4199 15.5 17.4199H12.5C11.6716 17.4199 11 16.7483 11 15.9199V13.4199Z" fill="#0F67FE"/>
</svg>
