<svg width="29" height="45" viewBox="0 0 29 45" fill="none" xmlns="http://www.w3.org/2000/svg">
<path d="M16 0.5C14.3431 0.5 13 1.84315 13 3.5V5.5C13 7.15685 14.3431 8.5 16 8.5H18C19.6569 8.5 21 7.15685 21 5.5V3.5C21 1.84315 19.6569 0.5 18 0.5H16Z" fill="#F2F5F9"/>
<path d="M20.4001 15.7C21.5601 17.72 23.5401 19.32 26.0001 20.06V17.5C26.0001 16.9477 26.4478 16.5 27.0001 16.5H28.0001C28.5524 16.5 29.0001 16.9477 29.0001 17.5V43.5C29.0001 44.0523 28.5524 44.5 28.0001 44.5H27.0001C26.4478 44.5 26.0001 44.0523 26.0001 43.5V24.18C22.8201 23.52 20.0001 21.8 18.0001 19.5L16.8001 25.5L17.276 25.9532C19.6541 28.2181 21.0001 31.3587 21.0001 34.6429V43.5C21.0001 44.0523 20.5524 44.5 20.0001 44.5H18.0001C17.4478 44.5 17.0001 44.0523 17.0001 43.5V35.0714C17.0001 33.4294 16.3271 31.8591 15.138 30.7266L12.8001 28.5L9.3757 43.7195C9.27303 44.1758 8.8678 44.5 8.40009 44.5H6.21711C5.58698 44.5 5.11247 43.9315 5.23468 43.3133C6.32123 37.8172 10.8261 15.0323 11.1601 13.38C11.5401 11.5 13.1601 10.5 14.7201 10.5C16.1801 10.5 17.5801 11.2 18.4001 12.5L20.4001 15.7Z" fill="#F2F5F9"/>
<path d="M1.62009 23.94L5.86009 24.76L8.56009 11.04L6.24009 10.58C4.08009 10.16 1.98009 11.58 1.56009 13.74L0.0400891 21.6C-0.179911 22.68 0.540089 23.72 1.62009 23.94Z" fill="#F2F5F9"/>
</svg>
