<svg width="36" height="37" viewBox="0 0 36 37" fill="none" xmlns="http://www.w3.org/2000/svg">
<path fill-rule="evenodd" clip-rule="evenodd" d="M0 8.5C0 4.08172 3.58172 0.5 8 0.5H28C32.4183 0.5 36 4.08172 36 8.5V28.5C36 32.9183 32.4183 36.5 28 36.5H8C3.58172 36.5 0 32.9183 0 28.5V8.5ZM9 10.5C8.44772 10.5 8 10.9477 8 11.5V15.5C8 16.0523 8.44772 16.5 9 16.5H13C13.5523 16.5 14 16.0523 14 15.5V11.5C14 10.9477 13.5523 10.5 13 10.5H9ZM22 11.5C22 10.9477 22.4477 10.5 23 10.5H27C27.5523 10.5 28 10.9477 28 11.5V15.5C28 16.0523 27.5523 16.5 27 16.5H23C22.4477 16.5 22 16.0523 22 15.5V11.5ZM13 28.5C10.2386 28.5 8 26.2614 8 23.5V20.5H12V23.5C12 24.0523 12.4477 24.5 13 24.5H23C23.5523 24.5 24 24.0523 24 23.5V20.5H28V23.5C28 26.2614 25.7614 28.5 23 28.5H13Z" fill="#F2F5F9"/>
</svg>
