<svg width="18" height="19" viewBox="0 0 18 19" fill="none" xmlns="http://www.w3.org/2000/svg">
<path fill-rule="evenodd" clip-rule="evenodd" d="M0 4.41992C0 2.21078 1.79086 0.419922 4 0.419922H14C16.2091 0.419922 18 2.21078 18 4.41992V14.4199C18 16.6291 16.2091 18.4199 14 18.4199H4C1.79086 18.4199 0 16.6291 0 14.4199V4.41992ZM6.5 14.4199C5.11929 14.4199 4 13.3006 4 11.9199V10.4199H6V11.9199C6 12.1961 6.22386 12.4199 6.5 12.4199H11.5C11.7761 12.4199 12 12.1961 12 11.9199V10.4199H14V11.9199C14 13.3006 12.8807 14.4199 11.5 14.4199H6.5ZM6.35355 7.18769C6.15829 6.99243 5.84171 6.99243 5.64645 7.18769L4.70711 8.12703L3.29289 6.71282L4.23223 5.77347C5.20854 4.79716 6.79146 4.79717 7.76777 5.77348L8.70711 6.71282L7.29289 8.12703L6.35355 7.18769ZM11.6464 7.18769C11.8417 6.99243 12.1583 6.99243 12.3536 7.18769L13.2929 8.12703L14.7071 6.71282L13.7678 5.77348C12.7915 4.79717 11.2085 4.79716 10.2322 5.77347L9.29289 6.71282L10.7071 8.12703L11.6464 7.18769Z" fill="#0F67FE"/>
</svg>
