<svg width="20" height="21" viewBox="0 0 20 21" fill="none" xmlns="http://www.w3.org/2000/svg">
<path d="M9 0.469931C8.83844 0.437137 8.67123 0.419922 8.5 0.419922H5.5C4.11929 0.419922 3 1.53921 3 2.91992V4.46993C4.14112 4.70157 5 5.71044 5 6.91992V7.91992C5 8.19606 5.22386 8.41992 5.5 8.41992H7V10.4199H5.5C4.11929 10.4199 3 9.30063 3 7.91992V6.91992C3 6.64378 2.77614 6.41992 2.5 6.41992C1.11929 6.41992 0 7.53921 0 8.91992V11.9199C0 12.8085 0.463627 13.5889 1.16218 14.0322C1.52026 13.0897 2.43191 12.4199 3.5 12.4199H5.5C6.88071 12.4199 8 13.5392 8 14.9199V15.4199H6V14.9199C6 14.6438 5.77614 14.4199 5.5 14.4199H3.5C3.22386 14.4199 3 14.6438 3 14.9199V17.9199C3 19.3006 4.11929 20.4199 5.5 20.4199H8.5C8.67123 20.4199 8.83844 20.4027 9 20.3699V6.36991C8.83844 6.40271 8.67123 6.41992 8.5 6.41992H7V4.41992H8.5C8.77614 4.41992 9 4.19606 9 3.91992V0.469931Z" fill="#0F67FE"/>
<path d="M11 3.91992C11 4.19606 11.2239 4.41992 11.5 4.41992H13V6.41992H11.5C11.3288 6.41992 11.1616 6.40271 11 6.36991V20.3699C11.1616 20.4027 11.3288 20.4199 11.5 20.4199H14.5C15.8807 20.4199 17 19.3006 17 17.9199V14.9199C17 14.6438 16.7761 14.4199 16.5 14.4199H14.5C14.2239 14.4199 14 14.6438 14 14.9199V15.4199H12V14.9199C12 13.5392 13.1193 12.4199 14.5 12.4199H16.5C17.5681 12.4199 18.4797 13.0897 18.8378 14.0322C19.5364 13.5889 20 12.8085 20 11.9199V8.91992C20 7.53921 18.8807 6.41992 17.5 6.41992C17.2239 6.41992 17 6.64378 17 6.91992V7.91992C17 9.30063 15.8807 10.4199 14.5 10.4199H13V8.41992H14.5C14.7761 8.41992 15 8.19606 15 7.91992V6.91992C15 5.71044 15.8589 4.70157 17 4.46993V2.91992C17 1.53921 15.8807 0.419922 14.5 0.419922H11.5C11.3288 0.419922 11.1616 0.437137 11 0.469931V3.91992Z" fill="#0F67FE"/>
</svg>
